<svg xmlns="http://www.w3.org/2000/svg" xmlns:xlink="http://www.w3.org/1999/xlink" width="243.619" height="146.712" version="1.1" viewBox="0 0 243.619 146.712"><defs><path id="path-gezr3_2hxb-1" d="M99.2,0 L302.8,0 C337.523255,0 354.884883,0 368.147411,6.7575955 C379.813461,12.7017447 389.298255,22.1865393 395.242404,33.852589 C402,47.1151169 402,64.4767446 402,99.2 L402,774.8 C402,809.523255 402,826.884883 395.242404,840.147411 C389.298255,851.813461 379.813461,861.298255 368.147411,867.242404 C354.884883,874 337.523255,874 302.8,874 L99.2,874 C64.4767446,874 47.1151169,874 33.852589,867.242404 C22.1865393,861.298255 12.7017447,851.813461 6.7575955,840.147411 C0,826.884883 0,809.523255 0,774.8 L0,99.2 C0,64.4767446 0,47.1151169 6.7575955,33.852589 C12.7017447,22.1865393 22.1865393,12.7017447 33.852589,6.7575955 C47.1151169,0 64.4767446,0 99.2,0 Z"/><path id="path-gezr3_2hxb-2" d="M126.306166,0.00907951049 C176.521307,0.6059163 215.2815,30.38772 231.765,57.585 C240.218,70.909 243.578,83.642 243.618,93.95 L243.618,94.322 C243.573,106.014 239.236,114.523 233.24,117.124 C220.875,123.253 202.897,115.005 183.641,109.586 L183.589,109.57 C177.914,107.783 172.136,112.021 172.136,117.972 L172.136,136.387 C172.136,142.09 167.513,146.712 161.812,146.712 L135.134,146.712 C129.432,146.712 124.809,142.09 124.809,136.387 L124.809,114.059 C124.809,112.399 123.469,111.051 121.81,111.04 L121.63331,111.046248 C120.054995,111.147684 118.809,112.458286 118.809,114.059 L118.809,136.388 C118.809,142.09 114.187,146.712 108.485,146.712 L81.807,146.712 C76.105,146.712 71.482,142.09 71.482,136.387 L71.482,117.907 C71.482,111.989 65.736,107.773 60.09,109.55 L59.977,109.586 C40.722,115.005 22.744,123.253 10.378,117.124 C4.352,114.51 0,105.926 0,94.139 L0,94.094 C0.01,83.761 3.362,70.97 11.853,57.585 C28.4885,30.1401 67.7971232,0.0627436 118.680334,5.7704e-05 L120.241587,0.007549113 L121.81,0.034 C122.804691,0.0120509415 123.787438,1.53643518e-05 124.774134,1.91863464e-07 L124.787793,1.91863464e-07 Z"/><path id="path-gezr3_2hxb-3" d="M121.81,0.0340404489 C69.411,-1.16595955 28.828,29.5800404 11.853,57.5850404 L11.853,57.5850404 C3.362,70.9700404 0.01,83.7610404 0,94.0940404 L0,94.0940404 L0,94.1390404 C0,105.92604 4.352,114.51004 10.378,117.12404 L10.378,117.12404 C22.744,123.25304 40.722,115.00504 59.977,109.58604 L59.977,109.58604 L60.09,109.55004 C65.736,107.77304 71.482,111.98904 71.482,117.90704 L71.482,117.90704 L71.482,136.38704 C71.482,142.09004 76.105,146.71204 81.807,146.71204 L81.807,146.71204 L108.485,146.71204 C114.187,146.71204 118.809,142.09004 118.809,136.38804 L118.809,136.38804 L118.809,114.05904 C118.809,112.39904 120.149,111.05104 121.81,111.04004 L121.81,111.04004 C123.469,111.05104 124.809,112.39904 124.809,114.05904 L124.809,114.05904 L124.809,136.38704 C124.809,142.09004 129.432,146.71204 135.134,146.71204 L135.134,146.71204 L161.812,146.71204 C167.513,146.71204 172.136,142.09004 172.136,136.38704 L172.136,136.38704 L172.136,117.97204 C172.136,112.02104 177.914,107.78304 183.589,109.57004 L183.589,109.57004 L183.641,109.58604 C202.897,115.00504 220.875,123.25304 233.24,117.12404 L233.24,117.12404 C239.236,114.52304 243.573,106.01404 243.618,94.3220404 L243.618,94.3220404 L243.618,93.9500404 C243.578,83.6420404 240.218,70.9090404 231.765,57.5850404 L231.765,57.5850404 C215.115,30.1130404 175.736,0.00404044888 124.781,0 L124.781,0 C123.792,0 122.807,0.0120404489 121.81,0.0340404489"/><linearGradient id="linearGradient-gezr3_2hxb-5" x1="50%" x2="50%" y1="0%" y2="100%"><stop offset="0%" stop-color="#C1A6DC"/><stop offset="100%" stop-color="#00C2A2"/></linearGradient><path id="path-gezr3_2hxb-6" d="M1.42108547e-14,29.231 C1.42108547e-14,45.375 8.295,58.463 18.528,58.463 L18.528,58.463 C28.761,58.463 37.057,45.375 37.057,29.231 L37.057,29.231 C37.057,13.087 28.761,0 18.528,0 L18.528,0 C8.295,0 1.42108547e-14,13.087 1.42108547e-14,29.231"/><path id="path-gezr3_2hxb-8" d="M0,29.231 C0,45.374 8.295,58.462 18.528,58.462 L18.528,58.462 C28.76,58.462 37.055,45.374 37.055,29.231 L37.055,29.231 C37.055,13.087 28.76,0 18.528,0 L18.528,0 C8.295,0 0,13.087 0,29.231"/></defs><g id="Page-1" fill="none" fill-rule="evenodd" stroke="none" stroke-width="1"><g id="iPhone-17" transform="translate(-85, -477)"><g id="Avatar" transform="translate(85, 477)"><g id="Group-4" stroke-width="1" transform="translate(0, -0)"><mask id="mask-gezr3_2hxb-4" fill="#fff"><use xlink:href="#path-gezr3_2hxb-3"/></mask><path id="Fill-1" fill="url(#linearGradient-gezr3_2hxb-5)" d="M11.853,57.5850404 C3.362,70.9700404 0.01,83.7610404 0,94.0940404 L0,94.1390404 C0,105.92604 4.352,114.51004 10.378,117.12404 C22.744,123.25304 40.722,115.00504 59.977,109.58604 L60.09,109.55004 C65.736,107.77304 71.482,111.98904 71.482,117.90704 L71.482,136.38704 C71.482,142.09004 76.105,146.71204 81.807,146.71204 L108.485,146.71204 C114.187,146.71204 118.809,142.09004 118.809,136.38804 L118.809,114.05904 C118.809,112.39904 120.149,111.05104 121.81,111.04004 C123.469,111.05104 124.809,112.39904 124.809,114.05904 L124.809,136.38704 C124.809,142.09004 129.432,146.71204 135.134,146.71204 L161.812,146.71204 C167.513,146.71204 172.136,142.09004 172.136,136.38704 L172.136,117.97204 C172.136,112.02104 177.914,107.78304 183.589,109.57004 L183.641,109.58604 C202.897,115.00504 220.875,123.25304 233.24,117.12404 C239.236,114.52304 243.573,106.01404 243.618,94.3220404 L243.618,93.9500404 C243.578,83.6420404 240.218,70.9090404 231.765,57.5850404 C215.115,30.1130404 175.736,0.00404044888 124.781,0 C123.792,0 122.807,0.0120404489 121.81,0.0340404489 C69.411,-1.16595955 28.828,29.5800404 11.853,57.5850404 Z" mask="url(#mask-gezr3_2hxb-4)"/><path id="Stroke-1" stroke="#232323" stroke-linecap="round" stroke-width="3" d="M128.758,76.0000404 C128.663,79.9820404 125.362,83.2060404 121.379,83.2060404 C117.396,83.2060404 114.094,79.9820404 114,76.0000404" mask="url(#mask-gezr3_2hxb-4)"/></g><path id="Fill-5" fill="#FFF" d="M162.1733,44.1251 C162.1733,60.2691 153.8783,73.3561 143.6453,73.3561 C133.4123,73.3561 125.1173,60.2691 125.1173,44.1251 C125.1173,27.9811 133.4123,14.8941 143.6453,14.8941 C153.8783,14.8941 162.1733,27.9811 162.1733,44.1251"/><g id="Group-10" stroke-width="1" transform="translate(125.117, 14.894)"><mask id="mask-gezr3_2hxb-7" fill="#fff"><use xlink:href="#path-gezr3_2hxb-6"/></mask><path id="Fill-7" fill="#000" d="M28.488,35.9655 C28.488,47.4195 22.603,56.7045 15.343,56.7045 C8.083,56.7045 2.198,47.4195 2.198,35.9655 C2.198,24.5115 8.083,15.2265 15.343,15.2265 C22.603,15.2265 28.488,24.5115 28.488,35.9655" mask="url(#mask-gezr3_2hxb-7)"/></g><path id="Fill-11" fill="#FFF" d="M118.5015,42.7454 C118.5015,58.8894 110.2065,71.9764 99.9735,71.9764 C89.7405,71.9764 81.4455,58.8894 81.4455,42.7454 C81.4455,26.6014 89.7405,13.5144 99.9735,13.5144 C110.2065,13.5144 118.5015,26.6014 118.5015,42.7454"/><g id="Group-16" stroke-width="1" transform="translate(81.446, 13.515)"><mask id="mask-gezr3_2hxb-9" fill="#fff"><use xlink:href="#path-gezr3_2hxb-8"/></mask><path id="Fill-13" fill="#000" d="M28.4872,35.9648 C28.4872,47.4188 22.6022,56.7038 15.3422,56.7038 C8.0822,56.7038 2.1972,47.4188 2.1972,35.9648 C2.1972,24.5108 8.0822,15.2258 15.3422,15.2258 C22.6022,15.2258 28.4872,24.5108 28.4872,35.9648" mask="url(#mask-gezr3_2hxb-9)"/></g></g></g></g></svg>