<svg width="319" height="192" viewBox="0 0 319 192" version="1.1" xmlns="http://www.w3.org/2000/svg" xmlns:xlink="http://www.w3.org/1999/xlink">
    <defs>
        <path d="M292.517204,0.00485746056 C297.187434,0.0690545481 301.512673,0.910112874 305.409512,2.8398495 C313.260805,6.24374284 318.939767,17.3793555 318.998691,32.6805169 L318.998691,33.1673483 C318.946314,46.6572877 314.546657,63.3207918 303.478115,80.7577294 C291.166933,101.058073 269.362443,122.449861 240.703131,137.234091 C231.33029,142.068379 225.39861,151.681989 225.39861,162.224767 L225.39861,178.489122 C225.39861,185.951251 219.345154,192 211.880141,192 L176.947389,192 C169.481067,192 163.42761,185.951251 163.42761,178.487813 L163.42761,160.04973 C163.42761,157.889089 161.701793,156.123671 159.538628,156.073941 L159.460063,156.073941 C157.298207,156.123671 155.57108,157.889089 155.57108,160.04973 L155.57108,178.487813 C155.57108,185.951251 149.518933,192 142.052611,192 L107.119859,192 C99.6535369,192 93.6000805,185.951251 93.6000805,178.487813 L93.6000805,162.224767 C93.6000805,151.681989 87.6684002,142.068379 78.2955599,137.234091 C49.6362476,122.449861 27.8317578,101.058073 15.5205752,80.7590381 C4.45203371,63.3221004 0.0523768672,46.6585964 0,33.168657 L0,32.6805169 C0.0589239756,17.3780468 5.73919522,6.24374284 13.5891782,2.8398495 C17.6372553,0.834941927 22.1446121,0.00588908883 27.0225556,0.000879273679 C41.6563864,-0.0141501718 59.6254982,7.38720759 78.535184,12.7060363 C103.969391,20.7138884 131.074419,25.0207754 159.500655,25.1974481 C187.92689,25.0207754 215.031919,20.7138884 240.464816,12.7060363 C259.355843,7.39146082 277.306704,0.000856420701 291.931635,0.000856420701 Z" id="body-mask-path"></path>
        <linearGradient x1="50%" y1="0%" x2="50%" y2="100%" id="body-gradient">
            <stop stop-color="#C1A6DC" offset="0%"></stop>
            <stop stop-color="#00C2A2" offset="100%"></stop>
        </linearGradient>
        <path d="M2.57323358,0 C0.932528219,0 -0.319278906,1.53247178 0.0722381757,3.12514314 C1.65140072,9.5494847 7.4966591,14.3484378 14.3580287,14.3484378 C21.2180889,14.3484378 27.0633472,9.5494847 28.6425098,3.12514314 C29.0340269,1.53247178 27.7822197,0 26.1428238,0 Z" id="tongue-mask-path"></path>
    </defs>
    <g fill="none" fill-rule="evenodd" stroke="none" stroke-width="1">
        <mask id="body-mask" fill="white">
            <use xlink:href="#body-mask-path"></use>
        </mask>
        <path fill="url(#body-gradient)" mask="url(#body-mask)" d="M159.500655,25.1965916 C131.074419,25.019919 103.969391,20.713032 78.535184,12.7051799 C53.3222696,5.61340826 29.7814867,-5.18063722 13.5891782,2.83899308 C5.73919522,6.24288642 0.0589239756,17.3771904 0,32.6796605 L0,33.1678005 C0.0523768672,46.65774 4.45203371,63.321244 15.5205752,80.7581817 C27.8317578,101.057217 49.6362476,122.449005 78.2955599,137.233235 C87.6684002,142.067522 93.6000805,151.681133 93.6000805,162.22391 L93.6000805,178.486956 C93.6000805,185.950395 99.6535369,191.999144 107.119859,191.999144 L142.052611,191.999144 C149.518933,191.999144 155.57108,185.950395 155.57108,178.486956 L155.57108,160.048874 C155.57108,157.888232 157.298207,156.122814 159.460063,156.073084 L159.500655,156.073084 L159.538628,156.073084 C161.701793,156.122814 163.42761,157.888232 163.42761,160.048874 L163.42761,178.486956 C163.42761,185.950395 169.481067,191.999144 176.947389,191.999144 L211.880141,191.999144 C219.345154,191.999144 225.39861,185.950395 225.39861,178.488265 L225.39861,162.22391 C225.39861,151.681133 231.33029,142.067522 240.703131,137.233235 C269.362443,122.449005 291.166933,101.057217 303.478115,80.756873 C314.546657,63.3199353 318.946314,46.6564313 318.998691,33.1664919 L318.998691,32.6796605 C318.939767,17.3784991 313.260805,6.24288642 305.409512,2.83899308 C301.350305,0.828850761 296.826253,0 291.931635,0 C277.306704,0 259.355843,7.3906044 240.464816,12.7051799 C215.031919,20.713032 187.92689,25.019919 159.500655,25.1965916 Z"></path>
        <g transform="translate(100.8359, 53.7044)">
            <path d="M0,23.2174055 C0.305095251,10.3883527 10.9480747,0 23.7882636,0 C36.6284526,0 47.271432,10.3883527 47.5752179,23.2174055" stroke="#232323" stroke-width="8" stroke-linecap="round"></path>
            <path d="M69.7521072,23.2174055 C70.0572024,10.3883527 80.7001818,0 93.5403708,0 C106.38056,0 117.023539,10.3883527 117.327325,23.2174055" stroke="#232323" stroke-width="8" stroke-linecap="round"></path>
            <path d="M70.4485886,40.6013414 C72.0892939,40.6013414 73.3397916,42.1338132 72.949584,43.7264845 C71.3704214,50.1508261 65.5238536,54.9484705 58.6637935,54.9484705 C51.8037333,54.9484705 45.9571655,50.1508261 44.3793124,43.7264845 C43.9877953,42.1338132 45.238293,40.6013414 46.8789984,40.6013414 Z" fill="#232323"></path>
        </g>
        <g transform="translate(145.1426, 94.3053)">
            <mask id="tongue-mask" fill="white">
                <use xlink:href="#tongue-mask-path"></use>
            </mask>
            <path fill="#DB4646" mask="url(#tongue-mask)" d="M24.1531576,12.7553738 C24.1531576,15.8373303 19.7679044,18.3369213 14.357374,18.3369213 C8.9468436,18.3369213 4.5615904,15.8373303 4.5615904,12.7553738 C4.5615904,9.67341731 8.9468436,7.17382627 14.357374,7.17382627 C19.7679044,7.17382627 24.1531576,9.67341731 24.1531576,12.7553738"></path>
        </g>
    </g>
</svg>
